<?xml version="1.0" standalone="no"?>
<!DOCTYPE svg PUBLIC "-//W3C//DTD SVG 20010904//EN"
 "http://www.w3.org/TR/2001/REC-SVG-20010904/DTD/svg10.dtd">
<svg version="1.0" xmlns="http://www.w3.org/2000/svg"
 width="500.000000pt" height="500.000000pt" viewBox="0 0 500.000000 500.000000"
 preserveAspectRatio="xMidYMid meet">
<metadata>
Created by potrace 1.11, written by Peter Selinger 2001-2013
</metadata>
<g transform="translate(0.000000,500.000000) scale(0.100000,-0.100000)"
fill="#000000" stroke="none">
<path d="M0 2500 l0 -2500 2500 0 2500 0 0 2500 0 2500 -2500 0 -2500 0 0
-2500z m2651 2386 c60 -28 137 -90 191 -151 151 -173 303 -525 384 -889 9 -39
19 -74 23 -78 3 -4 60 9 126 28 141 41 369 88 508 105 127 15 380 6 462 -16
146 -41 243 -113 291 -217 26 -57 29 -73 28 -163 0 -81 -6 -115 -28 -180 -72
-211 -247 -458 -512 -721 l-132 -131 126 -126 127 -126 29 16 c20 11 48 14 92
11 52 -3 70 -9 101 -35 56 -44 76 -86 76 -152 0 -51 -11 -85 -44 -131 -8 -12
0 -32 35 -90 129 -215 167 -425 102 -563 -29 -60 -101 -134 -162 -165 -223
-113 -616 -98 -1099 42 -66 19 -123 31 -126 28 -3 -4 -19 -59 -34 -122 -52
-215 -160 -518 -213 -600 -9 -14 -19 -45 -22 -70 -4 -36 -9 -46 -26 -48 -13
-2 -36 -24 -57 -55 -42 -64 -122 -146 -183 -188 -176 -121 -376 -79 -546 116
-146 168 -286 484 -373 841 -14 60 -28 114 -30 121 -3 8 -16 8 -52 -4 -26 -8
-115 -32 -198 -53 l-150 -38 -6 -33 c-8 -51 -35 -95 -76 -126 -33 -25 -45 -28
-113 -28 -69 0 -80 3 -114 28 -20 16 -47 49 -59 73 -15 32 -26 43 -37 39 -9
-3 -69 -1 -132 5 -117 10 -220 36 -292 72 -61 31 -133 105 -163 167 -24 50
-28 67 -28 156 0 78 5 115 23 169 77 230 247 470 535 755 l116 114 -132 131
c-524 520 -683 960 -426 1180 98 83 208 116 420 123 228 8 430 -21 724 -103
72 -20 136 -37 143 -37 9 -1 26 48 52 148 21 83 48 177 59 209 23 65 26 96 11
96 -6 0 -24 21 -40 47 -55 87 -37 192 44 257 31 26 48 31 104 34 l67 4 37 56
c103 160 219 260 343 293 56 15 168 3 226 -25z m1889 -4101 c0 -25 0 -25 -98
-25 -63 0 -102 -4 -110 -12 -7 -7 -12 -38 -12 -70 l0 -58 100 0 c91 0 100 -2
100 -19 0 -16 -11 -19 -95 -23 -53 -3 -97 -7 -98 -9 -2 -2 0 -38 3 -79 l5 -75
108 -3 c97 -2 107 -4 107 -21 0 -17 -11 -20 -94 -26 -51 -4 -107 -4 -125 0
-56 12 -61 30 -61 226 0 224 -5 217 168 218 l102 1 0 -25z m-600 -177 c52
-103 99 -190 104 -195 5 -4 5 78 1 190 l-7 197 31 0 30 0 3 -210 c2 -116 2
-215 0 -220 -2 -6 -24 -10 -48 -10 l-44 0 -95 190 c-52 105 -97 190 -99 190
-3 0 -2 -88 1 -196 l6 -196 -29 4 -29 3 -3 210 c-1 115 0 215 3 223 3 9 18 12
42 10 l38 -3 95 -187z m-350 -38 l0 -220 -23 0 c-23 0 -24 3 -30 122 -4 66 -7
165 -7 220 l0 98 30 0 30 0 0 -220z m-390 27 c0 -129 4 -187 12 -195 8 -8 46
-12 105 -12 84 0 93 -2 93 -19 0 -23 -35 -31 -136 -31 -61 0 -77 4 -99 23
l-27 22 -5 198 -6 197 31 0 32 0 0 -183z m-2010 128 c0 -25 -1 -25 -83 -25
-103 0 -120 -10 -120 -70 0 -64 24 -80 123 -80 84 0 89 4 90 68 0 15 6 22 19
22 16 0 20 -8 23 -42 3 -43 3 -43 43 -44 33 0 40 -4 40 -20 0 -15 -8 -20 -38
-22 l-38 -3 3 -77 3 -77 40 -5 c32 -4 41 -9 43 -27 3 -21 0 -23 -52 -23 -46 0
-58 4 -73 24 -19 23 -19 23 -42 5 -69 -56 -205 -49 -236 12 -30 58 -13 154 32
173 21 10 21 10 -8 37 -25 23 -29 34 -29 81 0 94 32 116 178 117 81 1 82 1 82
-24z m556 -185 c41 -113 74 -211 74 -218 0 -9 -10 -12 -27 -10 -23 3 -29 12
-48 68 l-22 65 -91 3 -91 3 -22 -71 c-20 -65 -23 -70 -49 -70 l-29 0 13 43
c61 199 119 383 123 390 3 4 25 7 51 5 l45 -3 73 -205z m-988 -27 l2 -223 -25
0 c-25 0 -25 0 -26 95 -2 121 -2 120 -16 119 -7 -1 -53 -2 -103 -2 l-90 -2 0
-105 c0 -104 0 -105 -24 -105 -22 0 -23 4 -29 83 -4 45 -7 144 -7 220 l0 138
28 -3 c27 -3 27 -3 30 -90 l3 -88 99 0 100 0 0 96 0 95 28 -3 27 -3 3 -222z"/>
<path d="M2382 4810 c-73 -37 -150 -111 -217 -208 -41 -61 -47 -76 -37 -90 35
-50 52 -95 52 -138 0 -102 -71 -182 -170 -192 l-50 -5 -29 -96 c-34 -109 -93
-342 -89 -346 2 -2 66 -26 143 -55 77 -29 205 -81 285 -117 80 -36 165 -74
190 -85 l45 -20 133 61 c128 59 417 176 493 200 27 9 36 17 33 29 -103 459
-253 809 -420 976 -117 117 -241 146 -362 86z"/>
<path d="M815 3830 c-182 -16 -315 -82 -367 -184 -29 -56 -35 -163 -14 -246
33 -131 138 -315 280 -490 33 -41 129 -144 212 -229 l152 -154 24 19 c14 10
85 68 159 127 74 59 192 149 263 200 70 50 129 96 131 102 1 5 8 73 14 150 6
77 23 219 38 315 15 96 27 190 27 209 l1 34 -113 33 c-303 89 -601 131 -807
114z"/>
<path d="M3910 3829 c-212 -21 -648 -130 -643 -160 32 -192 56 -367 69 -508 9
-97 18 -181 19 -187 2 -6 70 -59 153 -118 82 -59 210 -156 283 -217 74 -60
136 -109 140 -109 11 0 290 287 354 365 143 172 254 366 290 505 22 84 16 189
-13 246 -39 77 -135 141 -254 169 -81 19 -277 26 -398 14z"/>
<path d="M1806 3563 c-20 -107 -66 -460 -66 -508 l0 -34 108 68 c110 70 320
192 475 275 49 26 87 49 85 51 -20 18 -553 235 -578 235 -4 0 -15 -39 -24 -87z"/>
<path d="M3044 3606 c-119 -47 -253 -103 -374 -158 l-75 -34 70 -38 c222 -121
355 -198 472 -271 l133 -83 -6 56 c-13 131 -46 384 -62 472 -12 68 -21 95 -32
97 -8 1 -65 -18 -126 -41z"/>
<path d="M2365 3296 c-197 -102 -541 -305 -612 -361 l-25 -21 -9 -220 c-9
-230 2 -662 18 -673 131 -91 488 -299 699 -408 l71 -37 164 88 c181 97 488
278 560 331 l47 34 7 178 c4 98 5 297 2 443 l-6 265 -25 20 c-70 56 -393 247
-601 356 l-150 78 -140 -73z m237 -340 c174 -37 311 -158 366 -322 62 -183 19
-367 -118 -504 -280 -280 -744 -138 -827 253 -54 256 118 515 381 572 80 18
117 18 198 1z"/>
<path d="M1530 2783 c-58 -42 -158 -119 -223 -172 -66 -53 -128 -102 -138
-110 -10 -7 -19 -19 -19 -25 1 -6 39 -42 86 -81 98 -80 395 -305 404 -305 3 0
5 173 5 385 0 212 -2 385 -5 385 -3 -1 -52 -35 -110 -77z"/>
<path d="M3365 2471 l0 -389 50 36 c124 90 258 192 353 270 84 68 101 87 90
96 -92 83 -474 376 -488 376 -3 0 -5 -175 -5 -389z"/>
<path d="M924 2268 c-352 -359 -516 -637 -502 -853 13 -188 156 -284 448 -301
l105 -5 24 51 c30 66 82 102 156 108 67 6 136 -25 168 -74 12 -19 25 -34 29
-34 14 0 314 79 353 93 22 8 39 19 38 23 -34 191 -83 582 -83 661 0 41 -2 42
-82 99 -128 89 -272 199 -389 296 -59 48 -109 88 -111 88 -3 0 -72 -69 -154
-152z"/>
<path d="M3855 2359 c-81 -70 -303 -240 -422 -323 -81 -57 -83 -58 -83 -99 0
-63 -38 -381 -63 -534 l-23 -135 25 -10 c124 -48 460 -120 641 -139 193 -19
400 4 502 57 47 24 108 84 130 128 29 56 35 163 14 246 -18 70 -74 195 -124
274 l-30 50 -55 -3 c-66 -3 -111 15 -154 60 -54 57 -68 133 -39 203 l14 33
-127 127 c-69 69 -128 126 -131 125 -3 0 -36 -27 -75 -60z"/>
<path d="M1740 1893 c0 -71 72 -589 83 -600 9 -8 430 162 540 219 l49 24 -179
97 c-98 54 -247 140 -332 192 -85 52 -155 95 -157 95 -2 0 -4 -12 -4 -27z"/>
<path d="M3235 1904 c-43 -32 -386 -235 -510 -300 l-129 -68 103 -48 c142 -67
428 -179 459 -181 25 -2 27 2 39 63 6 36 23 151 37 255 41 317 41 310 1 279z"/>
<path d="M2380 1433 c-116 -55 -461 -196 -513 -208 -25 -7 -27 -10 -21 -44 12
-67 84 -320 120 -424 53 -150 153 -350 221 -443 70 -94 127 -143 207 -180 50
-23 68 -26 125 -22 41 3 83 14 111 28 55 28 148 115 195 184 l36 52 -83 172
c-46 94 -85 171 -88 172 -3 0 -4 -88 -2 -195 l3 -195 -24 0 c-23 0 -24 4 -30
83 -4 45 -7 144 -7 220 l0 138 48 -3 47 -3 84 -164 c77 -153 84 -163 98 -145
11 15 14 52 12 169 l-2 150 26 3 27 3 1 -93 1 -93 23 50 c59 129 175 535 162
567 -3 9 -18 19 -34 22 -47 12 -344 132 -483 196 -72 33 -134 60 -138 59 -4 0
-59 -25 -122 -56z m25 -682 c53 -29 70 -80 70 -211 0 -130 -12 -166 -68 -201
-45 -28 -184 -24 -217 6 -47 42 -55 72 -55 205 0 135 12 174 61 201 59 31 154
31 209 0z"/>
<path d="M2274 720 c-44 -10 -54 -18 -70 -56 -16 -39 -19 -172 -4 -226 14 -50
43 -68 108 -68 42 0 58 5 77 24 29 29 40 93 32 187 -7 83 -28 127 -65 135 -15
3 -31 7 -37 8 -5 1 -24 0 -41 -4z"/>
<path d="M1020 499 c-33 -13 -40 -26 -40 -76 0 -65 27 -87 96 -80 30 3 70 15
89 27 37 23 42 42 29 109 l-6 31 -72 -1 c-39 0 -82 -5 -96 -10z"/>
<path d="M1617 703 c-7 -13 -57 -180 -57 -192 0 -7 26 -11 70 -11 39 0 70 3
70 7 0 4 -14 51 -32 105 -30 91 -40 109 -51 91z"/>
</g>
</svg>
